<mxfile host="app.diagrams.net" modified="2024-06-20T12:25:35.737Z" agent="Mozilla/5.0 (Windows NT 10.0; Win64; x64) AppleWebKit/537.36 (KHTML, like Gecko) Chrome/126.0.0.0 Safari/537.36 Edg/126.0.0.0" etag="4Cdat4stnp5LvaBqijpn" version="24.4.6" type="github">
  <diagram name="第 1 页" id="Rax4Fl9KoX1cWoAzVFCw">
    <mxGraphModel dx="2391" dy="887" grid="1" gridSize="10" guides="1" tooltips="1" connect="1" arrows="1" fold="1" page="1" pageScale="1" pageWidth="827" pageHeight="1169" math="0" shadow="0">
      <root>
        <mxCell id="0" />
        <mxCell id="1" parent="0" />
        <mxCell id="h92h-MnjdW707IpOeqrp-126" value="" style="group" vertex="1" connectable="0" parent="1">
          <mxGeometry x="-310" y="220" width="1020" height="580" as="geometry" />
        </mxCell>
        <mxCell id="h92h-MnjdW707IpOeqrp-10" value="" style="group" vertex="1" connectable="0" parent="h92h-MnjdW707IpOeqrp-126">
          <mxGeometry x="410" y="121" width="78" height="107" as="geometry" />
        </mxCell>
        <mxCell id="h92h-MnjdW707IpOeqrp-7" value="" style="sketch=0;outlineConnect=0;fontColor=#232F3E;gradientColor=none;fillColor=#01A88D;strokeColor=none;dashed=0;verticalLabelPosition=bottom;verticalAlign=top;align=center;html=1;fontSize=12;fontStyle=0;aspect=fixed;pointerEvents=1;shape=mxgraph.aws4.sagemaker_model;" vertex="1" parent="h92h-MnjdW707IpOeqrp-10">
          <mxGeometry width="78" height="78" as="geometry" />
        </mxCell>
        <mxCell id="h92h-MnjdW707IpOeqrp-8" value="model" style="text;html=1;align=center;verticalAlign=middle;resizable=0;points=[];autosize=1;strokeColor=none;fillColor=none;" vertex="1" parent="h92h-MnjdW707IpOeqrp-10">
          <mxGeometry x="10" y="77" width="60" height="30" as="geometry" />
        </mxCell>
        <mxCell id="h92h-MnjdW707IpOeqrp-57" value="" style="group" vertex="1" connectable="0" parent="h92h-MnjdW707IpOeqrp-126">
          <mxGeometry x="550" y="105" width="136.67" height="90" as="geometry" />
        </mxCell>
        <mxCell id="h92h-MnjdW707IpOeqrp-11" value="" style="rounded=0;whiteSpace=wrap;html=1;container=0;" vertex="1" parent="h92h-MnjdW707IpOeqrp-57">
          <mxGeometry x="10.47985559999998" width="120.72334440000002" height="26.730000000000004" as="geometry" />
        </mxCell>
        <mxCell id="h92h-MnjdW707IpOeqrp-12" value="fix1" style="text;html=1;align=center;verticalAlign=middle;whiteSpace=wrap;rounded=0;container=0;" vertex="1" parent="h92h-MnjdW707IpOeqrp-57">
          <mxGeometry y="5.181818181818167" width="62.86820000000001" height="16.363636363636367" as="geometry" />
        </mxCell>
        <mxCell id="h92h-MnjdW707IpOeqrp-14" value="" style="rounded=0;whiteSpace=wrap;html=1;container=0;" vertex="1" parent="h92h-MnjdW707IpOeqrp-57">
          <mxGeometry x="10.47985559999998" y="26.730000000000015" width="120.72334440000002" height="26.730000000000004" as="geometry" />
        </mxCell>
        <mxCell id="h92h-MnjdW707IpOeqrp-15" value="fix2" style="text;html=1;align=center;verticalAlign=middle;whiteSpace=wrap;rounded=0;container=0;" vertex="1" parent="h92h-MnjdW707IpOeqrp-57">
          <mxGeometry y="31.90909090909091" width="62.86820000000001" height="16.363636363636367" as="geometry" />
        </mxCell>
        <mxCell id="h92h-MnjdW707IpOeqrp-43" value="diff1" style="text;html=1;align=center;verticalAlign=middle;whiteSpace=wrap;rounded=0;container=0;" vertex="1" parent="h92h-MnjdW707IpOeqrp-57">
          <mxGeometry x="73.80180000000001" y="6.818181818181803" width="62.86820000000001" height="16.363636363636367" as="geometry" />
        </mxCell>
        <mxCell id="h92h-MnjdW707IpOeqrp-44" value="diff2" style="text;html=1;align=center;verticalAlign=middle;whiteSpace=wrap;rounded=0;container=0;" vertex="1" parent="h92h-MnjdW707IpOeqrp-57">
          <mxGeometry x="73.80180000000001" y="33.85090909090909" width="62.86820000000001" height="16.363636363636367" as="geometry" />
        </mxCell>
        <mxCell id="h92h-MnjdW707IpOeqrp-53" value="" style="endArrow=classic;html=1;rounded=0;dashed=1;" edge="1" parent="h92h-MnjdW707IpOeqrp-57">
          <mxGeometry width="50" height="50" relative="1" as="geometry">
            <mxPoint x="49.20120000000001" y="14.719090909090918" as="sourcePoint" />
            <mxPoint x="90.2022" y="14.719090909090918" as="targetPoint" />
          </mxGeometry>
        </mxCell>
        <mxCell id="h92h-MnjdW707IpOeqrp-54" value="" style="endArrow=classic;html=1;rounded=0;dashed=1;" edge="1" parent="h92h-MnjdW707IpOeqrp-57">
          <mxGeometry width="50" height="50" relative="1" as="geometry">
            <mxPoint x="49.20120000000001" y="39.812727272727294" as="sourcePoint" />
            <mxPoint x="90.2022" y="39.812727272727294" as="targetPoint" />
          </mxGeometry>
        </mxCell>
        <mxCell id="h92h-MnjdW707IpOeqrp-55" value="" style="group" vertex="1" connectable="0" parent="h92h-MnjdW707IpOeqrp-57">
          <mxGeometry x="62.87093339999997" y="65.45454545454545" width="5.125125000000001" height="24.545454545454547" as="geometry" />
        </mxCell>
        <mxCell id="h92h-MnjdW707IpOeqrp-21" value="" style="ellipse;whiteSpace=wrap;html=1;aspect=fixed;fillColor=#0d0d0d;container=0;" vertex="1" parent="h92h-MnjdW707IpOeqrp-55">
          <mxGeometry width="5.113636363636364" height="5.113636363636364" as="geometry" />
        </mxCell>
        <mxCell id="h92h-MnjdW707IpOeqrp-22" value="" style="ellipse;whiteSpace=wrap;html=1;aspect=fixed;fillColor=#0d0d0d;container=0;" vertex="1" parent="h92h-MnjdW707IpOeqrp-55">
          <mxGeometry y="10.227272727272728" width="5.113636363636364" height="5.113636363636364" as="geometry" />
        </mxCell>
        <mxCell id="h92h-MnjdW707IpOeqrp-23" value="" style="ellipse;whiteSpace=wrap;html=1;aspect=fixed;fillColor=#0d0d0d;container=0;" vertex="1" parent="h92h-MnjdW707IpOeqrp-55">
          <mxGeometry y="19.431818181818183" width="5.113636363636364" height="5.113636363636364" as="geometry" />
        </mxCell>
        <mxCell id="h92h-MnjdW707IpOeqrp-64" value="" style="html=1;shadow=0;dashed=0;align=center;verticalAlign=middle;shape=mxgraph.arrows2.jumpInArrow;dy=15;dx=38;arrowHead=55;rotation=120;" vertex="1" parent="h92h-MnjdW707IpOeqrp-126">
          <mxGeometry x="732.8299999999999" y="231" width="270.42" height="157.56" as="geometry" />
        </mxCell>
        <mxCell id="h92h-MnjdW707IpOeqrp-65" value="使用diff检索并投票" style="text;html=1;align=center;verticalAlign=middle;whiteSpace=wrap;rounded=0;" vertex="1" parent="h92h-MnjdW707IpOeqrp-126">
          <mxGeometry x="940" y="210" width="60" height="30" as="geometry" />
        </mxCell>
        <mxCell id="h92h-MnjdW707IpOeqrp-79" value="" style="rounded=0;whiteSpace=wrap;html=1;" vertex="1" parent="h92h-MnjdW707IpOeqrp-126">
          <mxGeometry x="220" y="90" width="120" height="120" as="geometry" />
        </mxCell>
        <mxCell id="h92h-MnjdW707IpOeqrp-83" value="bug-fix 1" style="rounded=0;whiteSpace=wrap;html=1;" vertex="1" parent="h92h-MnjdW707IpOeqrp-126">
          <mxGeometry x="220" y="91" width="120" height="30" as="geometry" />
        </mxCell>
        <mxCell id="h92h-MnjdW707IpOeqrp-85" value="bug-fix 2" style="rounded=0;whiteSpace=wrap;html=1;" vertex="1" parent="h92h-MnjdW707IpOeqrp-126">
          <mxGeometry x="220" y="121" width="120" height="30" as="geometry" />
        </mxCell>
        <mxCell id="h92h-MnjdW707IpOeqrp-86" value="bug-fix 3" style="rounded=0;whiteSpace=wrap;html=1;" vertex="1" parent="h92h-MnjdW707IpOeqrp-126">
          <mxGeometry x="220" y="150" width="120" height="30" as="geometry" />
        </mxCell>
        <mxCell id="h92h-MnjdW707IpOeqrp-87" value="&amp;nbsp;test bug" style="rounded=0;whiteSpace=wrap;html=1;" vertex="1" parent="h92h-MnjdW707IpOeqrp-126">
          <mxGeometry x="220" y="180" width="120" height="30" as="geometry" />
        </mxCell>
        <mxCell id="h92h-MnjdW707IpOeqrp-90" value="test bug" style="rounded=0;whiteSpace=wrap;html=1;" vertex="1" parent="h92h-MnjdW707IpOeqrp-126">
          <mxGeometry y="289.78" width="80" height="40" as="geometry" />
        </mxCell>
        <mxCell id="h92h-MnjdW707IpOeqrp-92" value="" style="group" vertex="1" connectable="0" parent="h92h-MnjdW707IpOeqrp-126">
          <mxGeometry x="239" y="330" width="581" height="250" as="geometry" />
        </mxCell>
        <mxCell id="h92h-MnjdW707IpOeqrp-91" value="" style="rounded=0;whiteSpace=wrap;html=1;" vertex="1" parent="h92h-MnjdW707IpOeqrp-92">
          <mxGeometry width="581" height="250.00000000000003" as="geometry" />
        </mxCell>
        <mxCell id="h92h-MnjdW707IpOeqrp-63" value="" style="group" vertex="1" connectable="0" parent="h92h-MnjdW707IpOeqrp-92">
          <mxGeometry x="343.52316666666667" y="51.19047619047619" width="207.5" height="129.16666666666669" as="geometry" />
        </mxCell>
        <mxCell id="h92h-MnjdW707IpOeqrp-60" value="" style="rounded=0;whiteSpace=wrap;html=1;" vertex="1" parent="h92h-MnjdW707IpOeqrp-63">
          <mxGeometry width="207.5" height="129.16666666666669" as="geometry" />
        </mxCell>
        <mxCell id="h92h-MnjdW707IpOeqrp-61" value="codebase" style="text;html=1;align=center;verticalAlign=middle;whiteSpace=wrap;rounded=0;" vertex="1" parent="h92h-MnjdW707IpOeqrp-63">
          <mxGeometry x="55.333333333333336" y="10.119047619047619" width="83" height="35.714285714285715" as="geometry" />
        </mxCell>
        <mxCell id="h92h-MnjdW707IpOeqrp-62" value="bug-fix-diff * N" style="rounded=0;whiteSpace=wrap;html=1;" vertex="1" parent="h92h-MnjdW707IpOeqrp-63">
          <mxGeometry x="13.141666666666667" y="57.738095238095234" width="181.21666666666667" height="47.61904761904761" as="geometry" />
        </mxCell>
        <mxCell id="h92h-MnjdW707IpOeqrp-66" value="" style="endArrow=classic;html=1;rounded=0;exitX=0;exitY=0.5;exitDx=0;exitDy=0;entryX=1;entryY=0.5;entryDx=0;entryDy=0;" edge="1" parent="h92h-MnjdW707IpOeqrp-92" source="h92h-MnjdW707IpOeqrp-60" target="h92h-MnjdW707IpOeqrp-68">
          <mxGeometry width="50" height="50" relative="1" as="geometry">
            <mxPoint x="166" y="98.80952380952381" as="sourcePoint" />
            <mxPoint x="235.16666666666669" y="39.28571428571429" as="targetPoint" />
          </mxGeometry>
        </mxCell>
        <mxCell id="h92h-MnjdW707IpOeqrp-78" value="排序" style="text;html=1;align=center;verticalAlign=middle;whiteSpace=wrap;rounded=0;" vertex="1" parent="h92h-MnjdW707IpOeqrp-92">
          <mxGeometry x="235.16666666666669" y="86.90476190476191" width="83" height="35.714285714285715" as="geometry" />
        </mxCell>
        <mxCell id="h92h-MnjdW707IpOeqrp-89" value="" style="group" vertex="1" connectable="0" parent="h92h-MnjdW707IpOeqrp-92">
          <mxGeometry x="13.833333333333334" y="23.809523809523807" width="193.66666666666666" height="185.41666666666669" as="geometry" />
        </mxCell>
        <mxCell id="h92h-MnjdW707IpOeqrp-68" value="" style="rounded=0;whiteSpace=wrap;html=1;" vertex="1" parent="h92h-MnjdW707IpOeqrp-89">
          <mxGeometry width="193.66666666666666" height="185.41666666666669" as="geometry" />
        </mxCell>
        <mxCell id="h92h-MnjdW707IpOeqrp-69" value="bug-fix 1" style="rounded=0;whiteSpace=wrap;html=1;" vertex="1" parent="h92h-MnjdW707IpOeqrp-89">
          <mxGeometry x="6.2250000000000005" y="11.904761904761903" width="181.21666666666667" height="35.714285714285715" as="geometry" />
        </mxCell>
        <mxCell id="h92h-MnjdW707IpOeqrp-70" value="bug-fix 2" style="rounded=0;whiteSpace=wrap;html=1;" vertex="1" parent="h92h-MnjdW707IpOeqrp-89">
          <mxGeometry x="6.2250000000000005" y="58.333333333333336" width="181.21666666666667" height="35.714285714285715" as="geometry" />
        </mxCell>
        <mxCell id="h92h-MnjdW707IpOeqrp-71" value="bug-fix 3" style="rounded=0;whiteSpace=wrap;html=1;" vertex="1" parent="h92h-MnjdW707IpOeqrp-89">
          <mxGeometry x="6.2250000000000005" y="101.19047619047619" width="181.21666666666667" height="35.714285714285715" as="geometry" />
        </mxCell>
        <mxCell id="h92h-MnjdW707IpOeqrp-88" value="" style="group" vertex="1" connectable="0" parent="h92h-MnjdW707IpOeqrp-89">
          <mxGeometry x="62.25" y="149.70238095238093" width="69.16666666666667" height="11.904761904761903" as="geometry" />
        </mxCell>
        <mxCell id="h92h-MnjdW707IpOeqrp-73" value="" style="ellipse;whiteSpace=wrap;html=1;aspect=fixed;fillColor=#0d0d0d;container=0;" vertex="1" parent="h92h-MnjdW707IpOeqrp-88">
          <mxGeometry width="11.904761904761903" height="11.904761904761903" as="geometry" />
        </mxCell>
        <mxCell id="h92h-MnjdW707IpOeqrp-74" value="" style="ellipse;whiteSpace=wrap;html=1;aspect=fixed;fillColor=#0d0d0d;container=0;" vertex="1" parent="h92h-MnjdW707IpOeqrp-88">
          <mxGeometry x="27.66666666666667" width="11.904761904761903" height="11.904761904761903" as="geometry" />
        </mxCell>
        <mxCell id="h92h-MnjdW707IpOeqrp-75" value="" style="ellipse;whiteSpace=wrap;html=1;aspect=fixed;fillColor=#0d0d0d;container=0;" vertex="1" parent="h92h-MnjdW707IpOeqrp-88">
          <mxGeometry x="55.33333333333334" width="11.904761904761903" height="11.904761904761903" as="geometry" />
        </mxCell>
        <mxCell id="h92h-MnjdW707IpOeqrp-96" value="" style="shape=flexArrow;endArrow=classic;html=1;rounded=0;" edge="1" parent="h92h-MnjdW707IpOeqrp-126">
          <mxGeometry width="50" height="50" relative="1" as="geometry">
            <mxPoint x="70" y="340" as="sourcePoint" />
            <mxPoint x="220" y="440" as="targetPoint" />
          </mxGeometry>
        </mxCell>
        <mxCell id="h92h-MnjdW707IpOeqrp-97" value="" style="shape=flexArrow;endArrow=classic;html=1;rounded=0;" edge="1" parent="h92h-MnjdW707IpOeqrp-126">
          <mxGeometry width="50" height="50" relative="1" as="geometry">
            <mxPoint x="290" y="318" as="sourcePoint" />
            <mxPoint x="290" y="228" as="targetPoint" />
          </mxGeometry>
        </mxCell>
        <mxCell id="h92h-MnjdW707IpOeqrp-98" value="" style="shape=flexArrow;endArrow=classic;html=1;rounded=0;exitX=1;exitY=0;exitDx=0;exitDy=0;" edge="1" parent="h92h-MnjdW707IpOeqrp-126">
          <mxGeometry width="50" height="50" relative="1" as="geometry">
            <mxPoint x="350" y="149.57999999999998" as="sourcePoint" />
            <mxPoint x="410" y="149.57999999999998" as="targetPoint" />
          </mxGeometry>
        </mxCell>
        <mxCell id="h92h-MnjdW707IpOeqrp-99" value="" style="shape=flexArrow;endArrow=classic;html=1;rounded=0;exitX=1;exitY=0;exitDx=0;exitDy=0;" edge="1" parent="h92h-MnjdW707IpOeqrp-126">
          <mxGeometry width="50" height="50" relative="1" as="geometry">
            <mxPoint x="500" y="151" as="sourcePoint" />
            <mxPoint x="560" y="151" as="targetPoint" />
          </mxGeometry>
        </mxCell>
        <mxCell id="h92h-MnjdW707IpOeqrp-100" value="使用bug检索" style="text;html=1;align=center;verticalAlign=middle;whiteSpace=wrap;rounded=0;" vertex="1" parent="h92h-MnjdW707IpOeqrp-126">
          <mxGeometry x="80" y="410" width="80" height="30" as="geometry" />
        </mxCell>
        <mxCell id="h92h-MnjdW707IpOeqrp-101" value="1" style="ellipse;whiteSpace=wrap;html=1;aspect=fixed;strokeWidth=2;fontFamily=Tahoma;spacingBottom=4;spacingRight=2;strokeColor=#d3d3d3;" vertex="1" parent="h92h-MnjdW707IpOeqrp-126">
          <mxGeometry x="60" y="410" width="20" height="20" as="geometry" />
        </mxCell>
        <mxCell id="h92h-MnjdW707IpOeqrp-102" value="2" style="ellipse;whiteSpace=wrap;html=1;aspect=fixed;strokeWidth=2;fontFamily=Tahoma;spacingBottom=4;spacingRight=2;strokeColor=#d3d3d3;" vertex="1" parent="h92h-MnjdW707IpOeqrp-126">
          <mxGeometry x="260" y="270" width="20" height="20" as="geometry" />
        </mxCell>
        <mxCell id="h92h-MnjdW707IpOeqrp-103" value="3" style="ellipse;whiteSpace=wrap;html=1;aspect=fixed;strokeWidth=2;fontFamily=Tahoma;spacingBottom=4;spacingRight=2;strokeColor=#d3d3d3;" vertex="1" parent="h92h-MnjdW707IpOeqrp-126">
          <mxGeometry x="420" y="91" width="20" height="20" as="geometry" />
        </mxCell>
        <mxCell id="h92h-MnjdW707IpOeqrp-105" value="4" style="ellipse;whiteSpace=wrap;html=1;aspect=fixed;strokeWidth=2;fontFamily=Tahoma;spacingBottom=4;spacingRight=2;strokeColor=#d3d3d3;" vertex="1" parent="h92h-MnjdW707IpOeqrp-126">
          <mxGeometry x="704" y="111" width="20" height="20" as="geometry" />
        </mxCell>
        <mxCell id="h92h-MnjdW707IpOeqrp-106" value="5" style="ellipse;whiteSpace=wrap;html=1;aspect=fixed;strokeWidth=2;fontFamily=Tahoma;spacingBottom=4;spacingRight=2;strokeColor=#d3d3d3;" vertex="1" parent="h92h-MnjdW707IpOeqrp-126">
          <mxGeometry x="1000" y="215" width="20" height="20" as="geometry" />
        </mxCell>
        <mxCell id="h92h-MnjdW707IpOeqrp-107" value="6" style="ellipse;whiteSpace=wrap;html=1;aspect=fixed;strokeWidth=2;fontFamily=Tahoma;spacingBottom=4;spacingRight=2;strokeColor=#d3d3d3;" vertex="1" parent="h92h-MnjdW707IpOeqrp-126">
          <mxGeometry x="300" y="270" width="20" height="20" as="geometry" />
        </mxCell>
        <mxCell id="h92h-MnjdW707IpOeqrp-112" value="" style="shape=flexArrow;endArrow=classic;html=1;rounded=0;exitX=1;exitY=0;exitDx=0;exitDy=0;" edge="1" parent="h92h-MnjdW707IpOeqrp-126">
          <mxGeometry width="50" height="50" relative="1" as="geometry">
            <mxPoint x="686.6700000000001" y="149.2" as="sourcePoint" />
            <mxPoint x="746.6700000000001" y="149.2" as="targetPoint" />
          </mxGeometry>
        </mxCell>
        <mxCell id="h92h-MnjdW707IpOeqrp-115" value="运行test case" style="rounded=0;whiteSpace=wrap;html=1;" vertex="1" parent="h92h-MnjdW707IpOeqrp-126">
          <mxGeometry x="758.44" y="121" width="90" height="51" as="geometry" />
        </mxCell>
        <mxCell id="h92h-MnjdW707IpOeqrp-117" value="出现错误" style="text;html=1;align=center;verticalAlign=middle;whiteSpace=wrap;rounded=0;" vertex="1" parent="h92h-MnjdW707IpOeqrp-126">
          <mxGeometry x="830" y="210" width="60" height="30" as="geometry" />
        </mxCell>
        <mxCell id="h92h-MnjdW707IpOeqrp-118" value="" style="shape=flexArrow;endArrow=classic;html=1;rounded=0;" edge="1" parent="h92h-MnjdW707IpOeqrp-126">
          <mxGeometry width="50" height="50" relative="1" as="geometry">
            <mxPoint x="802.96" y="111" as="sourcePoint" />
            <mxPoint x="803" y="50" as="targetPoint" />
          </mxGeometry>
        </mxCell>
        <mxCell id="h92h-MnjdW707IpOeqrp-119" value="通过测试" style="text;html=1;align=center;verticalAlign=middle;resizable=0;points=[];autosize=1;strokeColor=none;fillColor=none;" vertex="1" parent="h92h-MnjdW707IpOeqrp-126">
          <mxGeometry x="810" y="75" width="70" height="30" as="geometry" />
        </mxCell>
        <mxCell id="h92h-MnjdW707IpOeqrp-120" value="final fix" style="rounded=0;whiteSpace=wrap;html=1;" vertex="1" parent="h92h-MnjdW707IpOeqrp-126">
          <mxGeometry x="740" width="140" height="40" as="geometry" />
        </mxCell>
        <mxCell id="h92h-MnjdW707IpOeqrp-122" value="5" style="ellipse;whiteSpace=wrap;html=1;aspect=fixed;strokeWidth=2;fontFamily=Tahoma;spacingBottom=4;spacingRight=2;strokeColor=#d3d3d3;" vertex="1" parent="h92h-MnjdW707IpOeqrp-126">
          <mxGeometry x="880" y="80" width="20" height="20" as="geometry" />
        </mxCell>
        <mxCell id="h92h-MnjdW707IpOeqrp-123" value="7" style="ellipse;whiteSpace=wrap;html=1;aspect=fixed;strokeWidth=2;fontFamily=Tahoma;spacingBottom=4;spacingRight=2;strokeColor=#d3d3d3;" vertex="1" parent="h92h-MnjdW707IpOeqrp-126">
          <mxGeometry x="447" y="90" width="20" height="20" as="geometry" />
        </mxCell>
        <mxCell id="h92h-MnjdW707IpOeqrp-124" value="8" style="ellipse;whiteSpace=wrap;html=1;aspect=fixed;strokeWidth=2;fontFamily=Tahoma;spacingBottom=4;spacingRight=2;strokeColor=#d3d3d3;" vertex="1" parent="h92h-MnjdW707IpOeqrp-126">
          <mxGeometry x="724" y="111" width="20" height="20" as="geometry" />
        </mxCell>
        <mxCell id="h92h-MnjdW707IpOeqrp-125" value="9" style="ellipse;whiteSpace=wrap;html=1;aspect=fixed;strokeWidth=2;fontFamily=Tahoma;spacingBottom=4;spacingRight=2;strokeColor=#d3d3d3;" vertex="1" parent="h92h-MnjdW707IpOeqrp-126">
          <mxGeometry x="900" y="80" width="20" height="20" as="geometry" />
        </mxCell>
      </root>
    </mxGraphModel>
  </diagram>
</mxfile>
